<svg width="232" height="106" viewBox="0 0 232 106" fill="none" xmlns="http://www.w3.org/2000/svg">
<circle cx="189.5" cy="21.5" r="19.5" fill="white"/>
<ellipse cx="86.7428" cy="21.4489" rx="21.7428" ry="21.4489" fill="white"/>
<circle cx="203.619" cy="77.6192" r="27.6192" fill="white"/>
<ellipse cx="141.392" cy="56.686" rx="19.3922" ry="19.686" fill="white"/>
<ellipse cx="19.3922" cy="21.0984" rx="19.3922" ry="19.0984" fill="white"/>
<path d="M14.205 23.34C13.8383 23.5893 13.3763 23.7837 12.819 23.923C12.269 24.0623 11.6823 24.132 11.059 24.132C10.2817 24.132 9.62167 24.0367 9.079 23.846C8.53633 23.648 8.12567 23.3767 7.847 23.032C7.56833 22.68 7.429 22.2803 7.429 21.833C7.429 21.4223 7.54267 21.0593 7.77 20.744C7.99733 20.4287 8.309 20.194 8.705 20.04C8.40433 19.8787 8.16967 19.6587 8.001 19.38C7.83967 19.1013 7.759 18.7897 7.759 18.445C7.759 18.027 7.88733 17.6457 8.144 17.301C8.40067 16.9563 8.78933 16.6813 9.31 16.476C9.83067 16.2707 10.4687 16.168 11.224 16.168C11.7227 16.168 12.2103 16.2193 12.687 16.322C13.1637 16.4173 13.578 16.5493 13.93 16.718L13.435 18.082C12.7603 17.7667 12.0453 17.609 11.29 17.609C10.718 17.609 10.2853 17.697 9.992 17.873C9.706 18.0417 9.563 18.2727 9.563 18.566C9.563 18.8373 9.65833 19.0463 9.849 19.193C10.047 19.3323 10.344 19.402 10.74 19.402H12.841V20.81H10.63C10.1827 20.81 9.838 20.887 9.596 21.041C9.354 21.195 9.233 21.4187 9.233 21.712C9.233 22.02 9.387 22.262 9.695 22.438C10.0103 22.6067 10.4907 22.691 11.136 22.691C11.5907 22.691 12.0453 22.6323 12.5 22.515C12.9547 22.3903 13.3397 22.218 13.655 21.998L14.205 23.34ZM20.1559 24L18.6709 21.855H18.5829H17.0319V24H15.2499V16.3H18.5829C19.2649 16.3 19.8552 16.4137 20.3539 16.641C20.8599 16.8683 21.2486 17.191 21.5199 17.609C21.7912 18.027 21.9269 18.522 21.9269 19.094C21.9269 19.666 21.7876 20.161 21.5089 20.579C21.2376 20.9897 20.8489 21.305 20.3429 21.525L22.0699 24H20.1559ZM20.1229 19.094C20.1229 18.6613 19.9836 18.3313 19.7049 18.104C19.4262 17.8693 19.0192 17.752 18.4839 17.752H17.0319V20.436H18.4839C19.0192 20.436 19.4262 20.3187 19.7049 20.084C19.9836 19.8493 20.1229 19.5193 20.1229 19.094ZM26.6718 16.3C27.3538 16.3 27.9441 16.4137 28.4428 16.641C28.9488 16.8683 29.3374 17.191 29.6088 17.609C29.8801 18.027 30.0158 18.522 30.0158 19.094C30.0158 19.6587 29.8801 20.1537 29.6088 20.579C29.3374 20.997 28.9488 21.3197 28.4428 21.547C27.9441 21.767 27.3538 21.877 26.6718 21.877H25.1208V24H23.3388V16.3H26.6718ZM26.5728 20.425C27.1081 20.425 27.5151 20.3113 27.7938 20.084C28.0724 19.8493 28.2118 19.5193 28.2118 19.094C28.2118 18.6613 28.0724 18.3313 27.7938 18.104C27.5151 17.8693 27.1081 17.752 26.5728 17.752H25.1208V20.425H26.5728Z" fill="#2D0679"/>
<path d="M178.598 25.132C177.813 25.132 177.102 24.9633 176.464 24.626C175.833 24.2813 175.335 23.8083 174.968 23.207C174.609 22.5983 174.429 21.9127 174.429 21.15C174.429 20.3873 174.609 19.7053 174.968 19.104C175.335 18.4953 175.833 18.0223 176.464 17.685C177.102 17.3403 177.817 17.168 178.609 17.168C179.276 17.168 179.878 17.2853 180.413 17.52C180.956 17.7547 181.41 18.092 181.777 18.532L180.633 19.588C180.112 18.9867 179.467 18.686 178.697 18.686C178.22 18.686 177.795 18.7923 177.421 19.005C177.047 19.2103 176.754 19.5 176.541 19.874C176.336 20.248 176.233 20.6733 176.233 21.15C176.233 21.6267 176.336 22.052 176.541 22.426C176.754 22.8 177.047 23.0933 177.421 23.306C177.795 23.5113 178.22 23.614 178.697 23.614C179.467 23.614 180.112 23.3097 180.633 22.701L181.777 23.757C181.41 24.2043 180.956 24.5453 180.413 24.78C179.87 25.0147 179.265 25.132 178.598 25.132ZM187.886 25L186.401 22.855H186.313H184.762V25H182.98V17.3H186.313C186.995 17.3 187.586 17.4137 188.084 17.641C188.59 17.8683 188.979 18.191 189.25 18.609C189.522 19.027 189.657 19.522 189.657 20.094C189.657 20.666 189.518 21.161 189.239 21.579C188.968 21.9897 188.579 22.305 188.073 22.525L189.8 25H187.886ZM187.853 20.094C187.853 19.6613 187.714 19.3313 187.435 19.104C187.157 18.8693 186.75 18.752 186.214 18.752H184.762V21.436H186.214C186.75 21.436 187.157 21.3187 187.435 21.084C187.714 20.8493 187.853 20.5193 187.853 20.094ZM199.858 17.168C200.768 17.168 201.475 17.4357 201.981 17.971C202.487 18.499 202.74 19.2653 202.74 20.27V25H200.958V20.325C200.958 19.7823 200.815 19.3753 200.529 19.104C200.251 18.8253 199.88 18.686 199.418 18.686C198.912 18.686 198.509 18.8327 198.208 19.126C197.908 19.412 197.757 19.8483 197.757 20.435V25H195.975V20.325C195.975 19.7823 195.843 19.3753 195.579 19.104C195.315 18.8253 194.956 18.686 194.501 18.686C194.003 18.686 193.603 18.8327 193.302 19.126C193.002 19.412 192.851 19.8483 192.851 20.435V25H191.069V17.3H192.796V18.246C193.031 17.9013 193.343 17.6373 193.731 17.454C194.12 17.2633 194.567 17.168 195.073 17.168C195.601 17.168 196.063 17.267 196.459 17.465C196.855 17.6557 197.16 17.9343 197.372 18.301C197.636 17.9343 197.981 17.6557 198.406 17.465C198.839 17.267 199.323 17.168 199.858 17.168Z" fill="#2D0679"/>
<path d="M130.378 52.168C131.089 52.168 131.709 52.3073 132.237 52.586C132.765 52.8647 133.176 53.2753 133.469 53.818C133.762 54.3607 133.909 55.017 133.909 55.787V60H132.127V58.152H128.607V60H126.847V55.787C126.847 55.017 126.994 54.3607 127.287 53.818C127.58 53.2753 127.991 52.8647 128.519 52.586C129.047 52.3073 129.667 52.168 130.378 52.168ZM132.127 56.722V55.622C132.127 54.984 131.969 54.5037 131.654 54.181C131.339 53.851 130.91 53.686 130.367 53.686C129.817 53.686 129.384 53.851 129.069 54.181C128.761 54.5037 128.607 54.984 128.607 55.622V56.722H132.127ZM139.045 53.994C139.595 53.994 140.094 54.1223 140.541 54.379C140.996 54.6283 141.351 54.984 141.608 55.446C141.865 55.9007 141.993 56.4323 141.993 57.041C141.993 57.6497 141.865 58.185 141.608 58.647C141.351 59.1017 140.996 59.4573 140.541 59.714C140.094 59.9633 139.595 60.088 139.045 60.088C138.29 60.088 137.696 59.8497 137.263 59.373V62.134H135.547V54.082H137.186V54.764C137.611 54.2507 138.231 53.994 139.045 53.994ZM138.748 58.68C139.188 58.68 139.547 58.5333 139.826 58.24C140.112 57.9393 140.255 57.5397 140.255 57.041C140.255 56.5423 140.112 56.1463 139.826 55.853C139.547 55.5523 139.188 55.402 138.748 55.402C138.308 55.402 137.945 55.5523 137.659 55.853C137.38 56.1463 137.241 56.5423 137.241 57.041C137.241 57.5397 137.38 57.9393 137.659 58.24C137.945 58.5333 138.308 58.68 138.748 58.68ZM146.64 53.994C147.19 53.994 147.688 54.1223 148.136 54.379C148.59 54.6283 148.946 54.984 149.203 55.446C149.459 55.9007 149.588 56.4323 149.588 57.041C149.588 57.6497 149.459 58.185 149.203 58.647C148.946 59.1017 148.59 59.4573 148.136 59.714C147.688 59.9633 147.19 60.088 146.64 60.088C145.884 60.088 145.29 59.8497 144.858 59.373V62.134H143.142V54.082H144.781V54.764C145.206 54.2507 145.826 53.994 146.64 53.994ZM146.343 58.68C146.783 58.68 147.142 58.5333 147.421 58.24C147.707 57.9393 147.85 57.5397 147.85 57.041C147.85 56.5423 147.707 56.1463 147.421 55.853C147.142 55.5523 146.783 55.402 146.343 55.402C145.903 55.402 145.54 55.5523 145.254 55.853C144.975 56.1463 144.836 56.5423 144.836 57.041C144.836 57.5397 144.975 57.9393 145.254 58.24C145.54 58.5333 145.903 58.68 146.343 58.68ZM152.727 60.088C152.236 60.088 151.756 60.0293 151.286 59.912C150.817 59.7873 150.443 59.6333 150.164 59.45L150.736 58.218C151 58.3867 151.319 58.526 151.693 58.636C152.067 58.7387 152.434 58.79 152.793 58.79C153.519 58.79 153.882 58.6103 153.882 58.251C153.882 58.0823 153.783 57.9613 153.585 57.888C153.387 57.8147 153.083 57.7523 152.672 57.701C152.188 57.6277 151.789 57.5433 151.473 57.448C151.158 57.3527 150.883 57.184 150.648 56.942C150.421 56.7 150.307 56.3553 150.307 55.908C150.307 55.534 150.414 55.204 150.626 54.918C150.846 54.6247 151.162 54.3973 151.572 54.236C151.99 54.0747 152.482 53.994 153.046 53.994C153.464 53.994 153.879 54.0417 154.289 54.137C154.707 54.225 155.052 54.3497 155.323 54.511L154.751 55.732C154.231 55.4387 153.662 55.292 153.046 55.292C152.68 55.292 152.405 55.3433 152.221 55.446C152.038 55.5487 151.946 55.6807 151.946 55.842C151.946 56.0253 152.045 56.1537 152.243 56.227C152.441 56.3003 152.757 56.37 153.189 56.436C153.673 56.5167 154.069 56.6047 154.377 56.7C154.685 56.788 154.953 56.953 155.18 57.195C155.408 57.437 155.521 57.7743 155.521 58.207C155.521 58.5737 155.411 58.9 155.191 59.186C154.971 59.472 154.649 59.6957 154.223 59.857C153.805 60.011 153.307 60.088 152.727 60.088Z" fill="#2D0679"/>
<path d="M188.996 65.6H192.812C193.724 65.6 194.528 65.776 195.224 66.128C195.928 66.472 196.472 66.96 196.856 67.592C197.248 68.224 197.444 68.96 197.444 69.8C197.444 70.64 197.248 71.376 196.856 72.008C196.472 72.64 195.928 73.132 195.224 73.484C194.528 73.828 193.724 74 192.812 74H188.996V65.6ZM192.716 72.404C193.556 72.404 194.224 72.172 194.72 71.708C195.224 71.236 195.476 70.6 195.476 69.8C195.476 69 195.224 68.368 194.72 67.904C194.224 67.432 193.556 67.196 192.716 67.196H190.94V72.404H192.716ZM205.33 67.544V74H203.542V73.256C203.078 73.816 202.406 74.096 201.526 74.096C200.918 74.096 200.366 73.96 199.87 73.688C199.382 73.416 198.998 73.028 198.718 72.524C198.438 72.02 198.298 71.436 198.298 70.772C198.298 70.108 198.438 69.524 198.718 69.02C198.998 68.516 199.382 68.128 199.87 67.856C200.366 67.584 200.918 67.448 201.526 67.448C202.35 67.448 202.994 67.708 203.458 68.228V67.544H205.33ZM201.85 72.56C202.322 72.56 202.714 72.4 203.026 72.08C203.338 71.752 203.494 71.316 203.494 70.772C203.494 70.228 203.338 69.796 203.026 69.476C202.714 69.148 202.322 68.984 201.85 68.984C201.37 68.984 200.974 69.148 200.662 69.476C200.35 69.796 200.194 70.228 200.194 70.772C200.194 71.316 200.35 71.752 200.662 72.08C200.974 72.4 201.37 72.56 201.85 72.56ZM210.951 73.688C210.767 73.824 210.539 73.928 210.267 74C210.003 74.064 209.727 74.096 209.439 74.096C208.663 74.096 208.067 73.9 207.651 73.508C207.235 73.116 207.027 72.54 207.027 71.78V66.116H208.899V67.688H210.495V69.128H208.899V71.756C208.899 72.028 208.967 72.24 209.103 72.392C209.239 72.536 209.435 72.608 209.691 72.608C209.979 72.608 210.235 72.528 210.459 72.368L210.951 73.688ZM218.361 67.544V74H216.573V73.256C216.109 73.816 215.437 74.096 214.557 74.096C213.949 74.096 213.397 73.96 212.901 73.688C212.413 73.416 212.029 73.028 211.749 72.524C211.469 72.02 211.329 71.436 211.329 70.772C211.329 70.108 211.469 69.524 211.749 69.02C212.029 68.516 212.413 68.128 212.901 67.856C213.397 67.584 213.949 67.448 214.557 67.448C215.381 67.448 216.025 67.708 216.489 68.228V67.544H218.361ZM214.881 72.56C215.353 72.56 215.745 72.4 216.057 72.08C216.369 71.752 216.525 71.316 216.525 70.772C216.525 70.228 216.369 69.796 216.057 69.476C215.745 69.148 215.353 68.984 214.881 68.984C214.401 68.984 214.005 69.148 213.693 69.476C213.381 69.796 213.225 70.228 213.225 70.772C213.225 71.316 213.381 71.752 213.693 72.08C214.005 72.4 214.401 72.56 214.881 72.56ZM195.164 84.632C195.644 84.784 196.02 85.04 196.292 85.4C196.564 85.752 196.7 86.188 196.7 86.708C196.7 87.444 196.412 88.012 195.836 88.412C195.268 88.804 194.436 89 193.34 89H188.996V80.6H193.1C194.124 80.6 194.908 80.796 195.452 81.188C196.004 81.58 196.28 82.112 196.28 82.784C196.28 83.192 196.18 83.556 195.98 83.876C195.788 84.196 195.516 84.448 195.164 84.632ZM190.928 82.064V84.044H192.86C193.34 84.044 193.704 83.96 193.952 83.792C194.2 83.624 194.324 83.376 194.324 83.048C194.324 82.72 194.2 82.476 193.952 82.316C193.704 82.148 193.34 82.064 192.86 82.064H190.928ZM193.196 87.536C193.708 87.536 194.092 87.452 194.348 87.284C194.612 87.116 194.744 86.856 194.744 86.504C194.744 85.808 194.228 85.46 193.196 85.46H190.928V87.536H193.196ZM204.592 82.544V89H202.804V88.256C202.34 88.816 201.668 89.096 200.788 89.096C200.18 89.096 199.628 88.96 199.132 88.688C198.644 88.416 198.26 88.028 197.98 87.524C197.7 87.02 197.56 86.436 197.56 85.772C197.56 85.108 197.7 84.524 197.98 84.02C198.26 83.516 198.644 83.128 199.132 82.856C199.628 82.584 200.18 82.448 200.788 82.448C201.612 82.448 202.256 82.708 202.72 83.228V82.544H204.592ZM201.112 87.56C201.584 87.56 201.976 87.4 202.288 87.08C202.6 86.752 202.756 86.316 202.756 85.772C202.756 85.228 202.6 84.796 202.288 84.476C201.976 84.148 201.584 83.984 201.112 83.984C200.632 83.984 200.236 84.148 199.924 84.476C199.612 84.796 199.456 85.228 199.456 85.772C199.456 86.316 199.612 86.752 199.924 87.08C200.236 87.4 200.632 87.56 201.112 87.56ZM208.497 89.096C207.961 89.096 207.437 89.032 206.925 88.904C206.413 88.768 206.005 88.6 205.701 88.4L206.325 87.056C206.613 87.24 206.961 87.392 207.369 87.512C207.777 87.624 208.177 87.68 208.569 87.68C209.361 87.68 209.757 87.484 209.757 87.092C209.757 86.908 209.649 86.776 209.433 86.696C209.217 86.616 208.885 86.548 208.437 86.492C207.909 86.412 207.473 86.32 207.129 86.216C206.785 86.112 206.485 85.928 206.229 85.664C205.981 85.4 205.857 85.024 205.857 84.536C205.857 84.128 205.973 83.768 206.205 83.456C206.445 83.136 206.789 82.888 207.237 82.712C207.693 82.536 208.229 82.448 208.845 82.448C209.301 82.448 209.753 82.5 210.201 82.604C210.657 82.7 211.033 82.836 211.329 83.012L210.705 84.344C210.137 84.024 209.517 83.864 208.845 83.864C208.445 83.864 208.145 83.92 207.945 84.032C207.745 84.144 207.645 84.288 207.645 84.464C207.645 84.664 207.753 84.804 207.969 84.884C208.185 84.964 208.529 85.04 209.001 85.112C209.529 85.2 209.961 85.296 210.297 85.4C210.633 85.496 210.925 85.676 211.173 85.94C211.421 86.204 211.545 86.572 211.545 87.044C211.545 87.444 211.425 87.8 211.185 88.112C210.945 88.424 210.593 88.668 210.129 88.844C209.673 89.012 209.129 89.096 208.497 89.096ZM215.952 87.596C216.288 87.596 216.584 87.548 216.84 87.452C217.104 87.348 217.348 87.188 217.572 86.972L218.568 88.052C217.96 88.748 217.072 89.096 215.904 89.096C215.176 89.096 214.532 88.956 213.972 88.676C213.412 88.388 212.98 87.992 212.676 87.488C212.372 86.984 212.22 86.412 212.22 85.772C212.22 85.14 212.368 84.572 212.664 84.068C212.968 83.556 213.38 83.16 213.9 82.88C214.428 82.592 215.02 82.448 215.676 82.448C216.292 82.448 216.852 82.58 217.356 82.844C217.86 83.1 218.26 83.476 218.556 83.972C218.86 84.46 219.012 85.04 219.012 85.712L214.236 86.636C214.372 86.956 214.584 87.196 214.872 87.356C215.168 87.516 215.528 87.596 215.952 87.596ZM215.676 83.864C215.204 83.864 214.82 84.016 214.524 84.32C214.228 84.624 214.072 85.044 214.056 85.58L217.2 84.968C217.112 84.632 216.932 84.364 216.66 84.164C216.388 83.964 216.06 83.864 215.676 83.864Z" fill="#2D0679"/>
<path d="M75.443 25.132C74.8343 25.132 74.244 25.0513 73.672 24.89C73.1073 24.7213 72.6527 24.505 72.308 24.241L72.913 22.899C73.243 23.141 73.6353 23.3353 74.09 23.482C74.5447 23.6287 74.9993 23.702 75.454 23.702C75.96 23.702 76.334 23.6287 76.576 23.482C76.818 23.328 76.939 23.1263 76.939 22.877C76.939 22.6937 76.8657 22.5433 76.719 22.426C76.5797 22.3013 76.3963 22.2023 76.169 22.129C75.949 22.0557 75.6483 21.975 75.267 21.887C74.6803 21.7477 74.2 21.6083 73.826 21.469C73.452 21.3297 73.1293 21.106 72.858 20.798C72.594 20.49 72.462 20.0793 72.462 19.566C72.462 19.1187 72.583 18.7153 72.825 18.356C73.067 17.9893 73.43 17.6997 73.914 17.487C74.4053 17.2743 75.003 17.168 75.707 17.168C76.1983 17.168 76.6787 17.2267 77.148 17.344C77.6173 17.4613 78.028 17.63 78.38 17.85L77.83 19.203C77.1187 18.7997 76.4073 18.598 75.696 18.598C75.1973 18.598 74.827 18.6787 74.585 18.84C74.3503 19.0013 74.233 19.214 74.233 19.478C74.233 19.742 74.3687 19.94 74.64 20.072C74.9187 20.1967 75.3403 20.3213 75.905 20.446C76.4917 20.5853 76.972 20.7247 77.346 20.864C77.72 21.0033 78.039 21.2233 78.303 21.524C78.5743 21.8247 78.71 22.2317 78.71 22.745C78.71 23.185 78.5853 23.5883 78.336 23.955C78.094 24.3143 77.7273 24.6003 77.236 24.813C76.7447 25.0257 76.147 25.132 75.443 25.132ZM85.8126 19.082V25H84.1736V24.318C83.7483 24.8313 83.1323 25.088 82.3256 25.088C81.7683 25.088 81.2623 24.9633 80.8076 24.714C80.3603 24.4647 80.0083 24.109 79.7516 23.647C79.495 23.185 79.3666 22.6497 79.3666 22.041C79.3666 21.4323 79.495 20.897 79.7516 20.435C80.0083 19.973 80.3603 19.6173 80.8076 19.368C81.2623 19.1187 81.7683 18.994 82.3256 18.994C83.081 18.994 83.6713 19.2323 84.0966 19.709V19.082H85.8126ZM82.6226 23.68C83.0553 23.68 83.4146 23.5333 83.7006 23.24C83.9866 22.9393 84.1296 22.5397 84.1296 22.041C84.1296 21.5423 83.9866 21.1463 83.7006 20.853C83.4146 20.5523 83.0553 20.402 82.6226 20.402C82.1826 20.402 81.8196 20.5523 81.5336 20.853C81.2476 21.1463 81.1046 21.5423 81.1046 22.041C81.1046 22.5397 81.2476 22.9393 81.5336 23.24C81.8196 23.5333 82.1826 23.68 82.6226 23.68ZM93.4074 19.082V25H91.7684V24.318C91.343 24.8313 90.727 25.088 89.9204 25.088C89.363 25.088 88.857 24.9633 88.4024 24.714C87.955 24.4647 87.603 24.109 87.3464 23.647C87.0897 23.185 86.9614 22.6497 86.9614 22.041C86.9614 21.4323 87.0897 20.897 87.3464 20.435C87.603 19.973 87.955 19.6173 88.4024 19.368C88.857 19.1187 89.363 18.994 89.9204 18.994C90.6757 18.994 91.266 19.2323 91.6914 19.709V19.082H93.4074ZM90.2174 23.68C90.65 23.68 91.0094 23.5333 91.2954 23.24C91.5814 22.9393 91.7244 22.5397 91.7244 22.041C91.7244 21.5423 91.5814 21.1463 91.2954 20.853C91.0094 20.5523 90.65 20.402 90.2174 20.402C89.7774 20.402 89.4144 20.5523 89.1284 20.853C88.8424 21.1463 88.6994 21.5423 88.6994 22.041C88.6994 22.5397 88.8424 22.9393 89.1284 23.24C89.4144 23.5333 89.7774 23.68 90.2174 23.68ZM97.5612 25.132C96.9525 25.132 96.3622 25.0513 95.7902 24.89C95.2255 24.7213 94.7708 24.505 94.4262 24.241L95.0312 22.899C95.3612 23.141 95.7535 23.3353 96.2082 23.482C96.6628 23.6287 97.1175 23.702 97.5722 23.702C98.0782 23.702 98.4522 23.6287 98.6942 23.482C98.9362 23.328 99.0572 23.1263 99.0572 22.877C99.0572 22.6937 98.9838 22.5433 98.8372 22.426C98.6978 22.3013 98.5145 22.2023 98.2872 22.129C98.0672 22.0557 97.7665 21.975 97.3852 21.887C96.7985 21.7477 96.3182 21.6083 95.9442 21.469C95.5702 21.3297 95.2475 21.106 94.9762 20.798C94.7122 20.49 94.5802 20.0793 94.5802 19.566C94.5802 19.1187 94.7012 18.7153 94.9432 18.356C95.1852 17.9893 95.5482 17.6997 96.0322 17.487C96.5235 17.2743 97.1212 17.168 97.8252 17.168C98.3165 17.168 98.7968 17.2267 99.2662 17.344C99.7355 17.4613 100.146 17.63 100.498 17.85L99.9482 19.203C99.2368 18.7997 98.5255 18.598 97.8142 18.598C97.3155 18.598 96.9452 18.6787 96.7032 18.84C96.4685 19.0013 96.3512 19.214 96.3512 19.478C96.3512 19.742 96.4868 19.94 96.7582 20.072C97.0368 20.1967 97.4585 20.3213 98.0232 20.446C98.6098 20.5853 99.0902 20.7247 99.4642 20.864C99.8382 21.0033 100.157 21.2233 100.421 21.524C100.692 21.8247 100.828 22.2317 100.828 22.745C100.828 23.185 100.703 23.5883 100.454 23.955C100.212 24.3143 99.8455 24.6003 99.3542 24.813C98.8628 25.0257 98.2652 25.132 97.5612 25.132Z" fill="#2D0679"/>
</svg>
