<svg width="380" height="278" viewBox="0 0 380 278" fill="none" xmlns="http://www.w3.org/2000/svg">
<path d="M179.165 4.19357C218.399 4.19357 259.426 -3.1713 298.276 9.08889C317.181 15.0551 329.701 15.1717 346.821 30.6315C359.833 42.382 370.473 75.0204 375.347 90.3635C382.354 128.553 374.005 168.319 367.34 184.368C354.16 216.106 346.821 221.143 324.8 234.308C288.767 255.851 238.72 251.608 201.408 251.608C187.172 251.935 174.777 252.914 161.593 252.914C140.333 252.914 119.061 253.43 97.8114 251.935C78.7631 250.594 59.7053 250.955 40.6471 250.955C38.5591 250.955 2.98987 249.04 2 252.914" stroke="black" stroke-width="3" stroke-linecap="round" stroke-linejoin="round"/>
<path d="M24.0004 275.75C22.9146 275.497 20.3868 275.053 19.7365 273.861C18.8732 272.278 17.0138 271.013 15.7643 269.764C14.2027 268.202 12.4909 267.017 11.1254 265.25C10.1557 263.995 9.03727 262.699 8.00039 261.514C6.69461 260.022 4.92195 257.877 4.50039 255.875C4.27787 254.818 3.39873 253.317 2.87539 252.375C2.28093 251.305 18.4254 242.121 20.1671 241.083C21.6028 240.228 23.1334 239.353 24.6948 238.75C25.7593 238.339 26.5576 238.082 27.3893 237.25C28.6282 236.011 30.0231 235.227 31.2504 234" stroke="black" stroke-width="3" stroke-linecap="round" stroke-linejoin="round"/>
</svg>
