<svg width="83" height="195" viewBox="0 0 83 195" fill="none" xmlns="http://www.w3.org/2000/svg">
<path d="M4.64831 2C1.46656 19.2155 5.5001 36.8256 4.59273 54.1257C3.8365 68.5442 2.78762 83.0985 2.64744 97.5447C2.48413 114.377 0.765449 132.215 3.70346 148.868C8.75315 177.492 34.8091 178.311 58.2271 178.311C64.2165 178.311 70.7258 177.56 76.6239 178.826C84.0094 180.412 77.2658 170.667 75.29 168.63C73.9082 167.206 72.3105 164.841 70.4546 164.105C68.4976 163.329 64.0986 163.584 66.6752 161.814" stroke="black" stroke-width="3" stroke-linecap="round" stroke-linejoin="round"/>
<path d="M81 181C75.8997 182.025 71.9914 182.406 67.7778 185.579C65.426 187.349 62 195.333 62 192.332" stroke="black" stroke-width="3" stroke-linecap="round" stroke-linejoin="round"/>
</svg>
